<?xml version="1.0" encoding="UTF-8" standalone="no"?>
<svg
   xmlns:dc="http://purl.org/dc/elements/1.1/"
   xmlns:cc="http://creativecommons.org/ns#"
   xmlns:rdf="http://www.w3.org/1999/02/22-rdf-syntax-ns#"
   xmlns:svg="http://www.w3.org/2000/svg"
   xmlns="http://www.w3.org/2000/svg"
   xmlns:xlink="http://www.w3.org/1999/xlink"
   xmlns:sodipodi="http://sodipodi.sourceforge.net/DTD/sodipodi-0.dtd"
   xmlns:inkscape="http://www.inkscape.org/namespaces/inkscape"
   version="1.1"
   width="701.31848"
   height="463.81509"
   id="svg2"
   inkscape:version="1.0rc1 (09960d6f05, 2020-04-09)"
   sodipodi:docname="NestedSetModel-ru.svg">
  <metadata
     id="metadata43">
    <rdf:RDF>
      <cc:Work
         rdf:about="">
        <dc:format>image/svg+xml</dc:format>
        <dc:type
           rdf:resource="http://purl.org/dc/dcmitype/StillImage" />
      </cc:Work>
    </rdf:RDF>
  </metadata>
  <sodipodi:namedview
     pagecolor="#ffffff"
     bordercolor="#666666"
     borderopacity="1"
     objecttolerance="10"
     gridtolerance="10"
     guidetolerance="10"
     inkscape:pageopacity="0"
     inkscape:pageshadow="2"
     inkscape:window-width="1366"
     inkscape:window-height="704"
     id="namedview41"
     showgrid="true"
     inkscape:zoom="1.2643979"
     inkscape:cx="307.97341"
     inkscape:cy="177.10761"
     inkscape:window-x="0"
     inkscape:window-y="0"
     inkscape:window-maximized="1"
     inkscape:current-layer="svg2"
     inkscape:document-rotation="0"
     showguides="true"
     inkscape:guide-bbox="true">
    <inkscape:grid
       type="xygrid"
       id="grid116" />
    <sodipodi:guide
       position="360,298.81509"
       orientation="0,-1"
       id="guide145" />
    <sodipodi:guide
       position="265,348.81509"
       orientation="0,-1"
       id="guide147" />
    <sodipodi:guide
       position="310,228.81509"
       orientation="0,-1"
       id="guide149" />
  </sodipodi:namedview>
  <defs
     id="defs4" />
  <path
     d="m 690.23461,230 c 0,129.09829 -151.77989,225 -339.00986,225 C 163.99477,455 12.21488,359.09829 12.21488,230 12.21488,100.90171 163.99477,7 351.22474,7 538.45472,7 690.23461,100.90171 690.23461,230 Z"
     id="path2816"
     style="font-style:normal;font-variant:normal;font-weight:normal;font-stretch:normal;font-family:Arial;opacity:0.433628;fill:#9696c8;fill-opacity:1;stroke:#0000ff;stroke-width:0.080295;stroke-linecap:round;stroke-linejoin:round;stroke-miterlimit:4;stroke-dasharray:none;stroke-dashoffset:0;stroke-opacity:1"
     inkscape:connector-curvature="0"
     sodipodi:nodetypes="sssss" />
  <path
     d="m 678.98835,231.90797 a 157.93808,149.48905 0 1 1 -315.87614,0 157.93808,149.48905 0 1 1 315.87614,0 z"
     id="path2818-1"
     style="font-style:normal;font-variant:normal;font-weight:normal;font-stretch:normal;opacity:0.43362798;fill:#9696c8;fill-opacity:1;stroke:#0000ff;stroke-width:0.10278713;stroke-linecap:round;stroke-linejoin:round;stroke-miterlimit:4;stroke-opacity:1;stroke-dasharray:none;stroke-dashoffset:0;font-family:Arial"
     inkscape:connector-curvature="0" />
  <path
     d="m 338.2003,231.90797 a 149.48905,149.48905 0 1 1 -298.97809,0 149.48905,149.48905 0 1 1 298.97809,0 z"
     id="path2818"
     style="font-style:normal;font-variant:normal;font-weight:normal;font-stretch:normal;opacity:0.43362798;fill:#9696c8;fill-opacity:1;stroke:#0000ff;stroke-width:0.1;stroke-linecap:round;stroke-linejoin:round;stroke-miterlimit:4;stroke-opacity:1;stroke-dasharray:none;stroke-dashoffset:0;font-family:Arial"
     inkscape:connector-curvature="0" />
  <path
     d="m 311.49237,231.90848 a 120.27312,109.50581 0 1 1 -240.54623,0 120.27312,109.50581 0 1 1 240.54623,0 z"
     id="path2818-5"
     style="font-style:normal;font-variant:normal;font-weight:normal;font-stretch:normal;opacity:0.43362798;fill:#9696c8;fill-opacity:1;stroke:#0000ff;stroke-width:0.07677034;stroke-linecap:round;stroke-linejoin:round;stroke-miterlimit:4;stroke-opacity:1;stroke-dasharray:none;stroke-dashoffset:0;font-family:Arial"
     inkscape:connector-curvature="0" />
  <path
     d="m 187.1972,231.90755 a 50.206851,31.939023 0 0 1 -100.4137,0 50.206851,31.939023 0 1 1 100.4137,0 z"
     id="path3118"
     style="font-style:normal;font-variant:normal;font-weight:normal;font-stretch:normal;opacity:0.43362798;fill:#9696c8;fill-opacity:1;stroke:#0000ff;stroke-width:0.07261034;stroke-linecap:round;stroke-linejoin:round;stroke-miterlimit:4;stroke-opacity:1;stroke-dasharray:none;stroke-dashoffset:0;font-family:Arial"
     inkscape:connector-curvature="0" />
  <path
     d="m 290.64573,231.90755 a 48.205186,31.939023 0 0 1 -96.41037,0 48.205186,31.939023 0 1 1 96.41037,0 z"
     id="path3118-7"
     style="font-style:normal;font-variant:normal;font-weight:normal;font-stretch:normal;opacity:0.43362798;fill:#9696c8;fill-opacity:1;stroke:#0000ff;stroke-width:0.07114819;stroke-linecap:round;stroke-linejoin:round;stroke-miterlimit:4;stroke-opacity:1;stroke-dasharray:none;stroke-dashoffset:0;font-family:Arial"
     inkscape:connector-curvature="0" />
  <g
     style="font-style:normal;font-variant:normal;font-weight:normal;font-stretch:normal;font-size:40px;line-height:0%;font-family:Arial;fill:#ffffff;fill-opacity:1;stroke:none"
     id="text3168"
     aria-label="Одежда">
    <path
       id="path118"
       d="m 306.76926,46.519279 q 0,4.316407 -1.66016,7.558594 -1.64062,3.242188 -4.72656,4.980469 -3.08594,1.738281 -7.28516,1.738281 -4.23828,0 -7.32422,-1.71875 -3.0664,-1.71875 -4.6875,-4.960937 -1.62109,-3.261719 -1.62109,-7.597657 0,-6.601562 3.61328,-10.3125 3.61328,-3.730468 10.05859,-3.730468 4.19922,0 7.28516,1.679687 3.08594,1.660156 4.70703,4.84375 1.64063,3.183594 1.64063,7.519531 z m -3.8086,0 q 0,-5.136718 -2.57812,-8.066406 -2.5586,-2.929687 -7.2461,-2.929687 -4.72656,0 -7.30468,2.890625 -2.57813,2.890625 -2.57813,8.105468 0,5.175782 2.59766,8.222657 2.61719,3.027343 7.24609,3.027343 4.76563,0 7.30469,-2.929687 2.55859,-2.949219 2.55859,-8.320313 z" />
    <path
       id="path120"
       d="m 324.09348,41.831779 h -5.97657 q -0.72265,5.3125 -1.60156,9.257813 -0.87891,3.925781 -2.12891,6.757812 h 9.70704 z m 6.36718,26.542969 h -3.18359 v -7.96875 h -15.89844 v 7.96875 h -3.18359 V 57.847404 h 2.32422 q 1.46484,-2.441406 2.53906,-6.933593 1.07422,-4.492188 1.97266,-11.640625 h 12.57812 v 18.574218 h 2.85156 z" />
    <path
       id="path122"
       d="m 336.53488,50.581779 q 0,3.632813 1.50391,5.605469 1.5039,1.972656 4.39453,1.972656 2.28516,0 3.65234,-0.917968 1.38672,-0.917969 1.875,-2.324219 l 3.08594,0.878906 q -1.89453,5 -8.61328,5 -4.6875,0 -7.14844,-2.792969 -2.4414,-2.792968 -2.4414,-8.300781 0,-5.234375 2.4414,-8.027344 2.46094,-2.792968 7.01172,-2.792968 9.31641,0 9.31641,11.230468 v 0.46875 z m 11.44531,-2.695312 q -0.29296,-3.339844 -1.69921,-4.863281 -1.40625,-1.542969 -4.04297,-1.542969 -2.5586,0 -4.0625,1.71875 -1.48438,1.699219 -1.60157,4.6875 z" />
    <path
       id="path124"
       d="m 364.56223,51.089592 q -0.50782,0 -1.15235,-0.117188 -0.625,-0.117187 -0.99609,-0.273437 l -5.42969,9.707031 h -3.90625 l 6.89453,-11.5625 q -0.68359,-0.566406 -2.5,-3.222656 l -4.21875,-6.347656 h 3.67188 l 2.89062,4.667968 q 1.28906,2.070313 1.99219,2.988282 0.70312,0.898437 1.26953,1.25 0.58594,0.351562 1.48438,0.351562 v -9.257812 h 3.51562 v 9.257812 q 0.58594,0 1.05469,-0.15625 0.46875,-0.15625 0.97656,-0.644531 0.50781,-0.507813 1.15234,-1.40625 0.64454,-0.898438 4.45313,-7.050781 h 3.67187 l -4.21875,6.347656 q -1.8164,2.65625 -2.5,3.222656 l 6.89454,11.5625 h -3.90625 l -5.42969,-9.707031 q -0.3711,0.15625 -1.01563,0.273437 -0.625,0.117188 -1.13281,0.117188 v 9.316406 h -3.51562 z" />
    <path
       id="path126"
       d="m 395.98801,41.831779 h -5.97657 q -0.72265,5.3125 -1.60156,9.257813 -0.8789,3.925781 -2.1289,6.757812 h 9.70703 z m 6.36718,26.542969 h -3.18359 v -7.96875 h -15.89844 v 7.96875 h -3.18359 V 57.847404 h 2.32422 q 1.46484,-2.441406 2.53906,-6.933593 1.07422,-4.492188 1.97266,-11.640625 h 12.57812 v 18.574218 h 2.85156 z" />
    <path
       id="path128"
       d="m 411.12473,60.796623 q -3.1836,0 -4.78516,-1.679687 -1.60156,-1.679688 -1.60156,-4.609375 0,-3.28125 2.14843,-5.039063 2.16797,-1.757812 6.97266,-1.875 l 4.74609,-0.07813 v -1.152344 q 0,-2.578125 -1.09375,-3.691406 -1.09375,-1.113281 -3.4375,-1.113281 -2.36328,0 -3.4375,0.800781 -1.07421,0.800781 -1.28906,2.558594 l -3.67187,-0.332031 q 0.89843,-5.703125 8.47656,-5.703125 3.98437,0 5.99609,1.835937 2.01172,1.816406 2.01172,5.273438 v 9.101562 q 0,1.5625 0.41016,2.363281 0.41015,0.78125 1.5625,0.78125 0.50781,0 1.15234,-0.136718 v 2.1875 q -1.32812,0.3125 -2.71484,0.3125 -1.95313,0 -2.85156,-1.015625 -0.87891,-1.035157 -0.9961,-3.222657 h -0.11719 q -1.34765,2.421875 -3.14453,3.4375 -1.77734,0.996094 -4.33593,0.996094 z m 0.80078,-2.636719 q 1.93359,0 3.4375,-0.878906 1.5039,-0.878906 2.36328,-2.402344 0.8789,-1.542968 0.8789,-3.164062 v -1.738281 l -3.84765,0.07813 q -2.48047,0.03906 -3.76953,0.507812 -1.26953,0.46875 -1.95313,1.445313 -0.68359,0.976562 -0.68359,2.558593 0,1.71875 0.91797,2.65625 0.9375,0.9375 2.65625,0.9375 z" />
  </g>
  <g
     style="font-style:normal;font-variant:normal;font-weight:normal;font-stretch:normal;font-size:24px;line-height:0%;font-family:Arial;fill:#ffffff;fill-opacity:1;stroke:none"
     id="text3172"
     aria-label="Мужская">
    <path
       id="path131"
       d="m 156.92612,114.49411 v -11.01562 q 0,-1.82813 0.10547,-3.51563 -0.57422,2.09766 -1.03125,3.28125 l -4.26563,11.25 h -1.57031 l -4.32422,-11.25 -0.65625,-1.99219 -0.38672,-1.28906 0.0352,1.30078 0.0469,2.21485 v 11.01562 h -1.99219 V 97.982391 h 2.94141 l 4.39453,11.449219 q 0.23438,0.69141 0.44531,1.48828 0.22266,0.78516 0.29297,1.13672 0.0937,-0.46875 0.38672,-1.41797 0.30469,-0.96094 0.41016,-1.20703 l 4.3125,-11.449219 h 2.87109 v 16.511719 z" />
    <path
       id="path133"
       d="m 163.4183,119.47458 q -0.86718,0 -1.45312,-0.12891 v -1.58203 q 0.44531,0.0703 0.98437,0.0703 1.96875,0 3.11719,-2.89453 l 0.19922,-0.5039 -5.02734,-12.6211 h 2.25 l 2.67187,7.00782 q 0.0586,0.16406 0.14063,0.39843 0.082,0.22266 0.52734,1.52344 0.44531,1.30078 0.48047,1.45313 l 0.82031,-2.3086 2.77735,-8.07422 h 2.22656 l -4.875,12.67969 q -0.78516,2.02734 -1.46485,3.01172 -0.67968,0.99609 -1.51171,1.47656 -0.82032,0.49219 -1.86329,0.49219 z" />
    <path
       id="path135"
       d="m 180.42221,108.90427 q -0.30469,0 -0.69141,-0.0703 -0.375,-0.0703 -0.59765,-0.16406 l -3.25781,5.82422 h -2.34375 l 4.13671,-6.9375 q -0.41015,-0.33984 -1.5,-1.93359 l -2.53125,-3.8086 h 2.20313 l 1.73437,2.80078 q 0.77344,1.24219 1.19532,1.79297 0.42187,0.53907 0.76172,0.75 0.35156,0.21094 0.89062,0.21094 v -5.55469 h 2.10938 v 5.55469 q 0.35156,0 0.63281,-0.0937 0.28125,-0.0937 0.58594,-0.38672 0.30468,-0.30469 0.6914,-0.84375 0.38672,-0.53906 2.67188,-4.23047 h 2.20312 l -2.53125,3.8086 q -1.08984,1.59375 -1.5,1.93359 l 4.13672,6.9375 h -2.34375 l -3.25781,-5.82422 q -0.22266,0.0937 -0.60938,0.16406 -0.375,0.0703 -0.67968,0.0703 v 5.58984 h -2.10938 z" />
    <path
       id="path137"
       d="m 192.7269,108.09567 q 0,2.53125 0.79687,3.75 0.79688,1.21875 2.40235,1.21875 1.125,0 1.875,-0.60937 0.76172,-0.60938 0.9375,-1.875 l 2.13281,0.14062 q -0.24609,1.82813 -1.55859,2.91797 -1.3125,1.08985 -3.32813,1.08985 -2.66016,0 -4.06641,-1.67579 -1.39453,-1.6875 -1.39453,-4.91015 0,-3.19922 1.40625,-4.875 1.40625,-1.6875 4.03125,-1.6875 1.94532,0 3.22266,1.00781 1.28906,1.00781 1.61719,2.77734 l -2.16797,0.16407 q -0.16406,-1.05469 -0.83203,-1.67578 -0.66797,-0.6211 -1.89844,-0.6211 -1.67578,0 -2.42578,1.11328 -0.75,1.11328 -0.75,3.75 z" />
    <path
       id="path139"
       d="m 203.12143,101.81442 h 2.10937 v 5.55469 q 0.35157,0 0.63282,-0.0937 0.28125,-0.0937 0.58593,-0.38672 0.30469,-0.30469 0.69141,-0.84375 0.38672,-0.53906 2.67188,-4.23047 h 2.20312 l -2.53125,3.8086 q -1.08984,1.59375 -1.5,1.93359 l 4.13672,6.9375 h -2.34375 l -3.25781,-5.82422 q -0.22266,0.0937 -0.60938,0.16406 -0.375,0.0703 -0.67969,0.0703 v 5.58984 h -2.10937 z" />
    <path
       id="path141"
       d="m 217.38315,114.72849 q -1.91016,0 -2.8711,-1.00782 -0.96093,-1.00781 -0.96093,-2.76562 0,-1.96875 1.28906,-3.02344 1.30078,-1.05469 4.18359,-1.125 l 2.84766,-0.0469 v -0.69141 q 0,-1.54688 -0.65625,-2.21484 -0.65625,-0.66797 -2.0625,-0.66797 -1.41797,0 -2.0625,0.48047 -0.64453,0.48046 -0.77344,1.53515 l -2.20312,-0.19922 q 0.53906,-3.42187 5.08593,-3.42187 2.39063,0 3.59766,1.10156 1.20703,1.08984 1.20703,3.16406 v 5.46094 q 0,0.9375 0.2461,1.41797 0.24609,0.46875 0.9375,0.46875 0.30468,0 0.6914,-0.082 v 1.3125 q -0.79687,0.1875 -1.6289,0.1875 -1.17188,0 -1.71094,-0.60938 -0.52735,-0.62109 -0.59766,-1.93359 h -0.0703 q -0.80859,1.45312 -1.88672,2.0625 -1.06641,0.59766 -2.60156,0.59766 z m 0.48047,-1.58204 q 1.16015,0 2.0625,-0.52734 0.90234,-0.52734 1.41797,-1.44141 0.52734,-0.92578 0.52734,-1.89843 v -1.04297 l -2.30859,0.0469 q -1.48829,0.0234 -2.26172,0.30469 -0.76172,0.28125 -1.17188,0.86719 -0.41015,0.58594 -0.41015,1.53515 0,1.03125 0.55078,1.59375 0.5625,0.5625 1.59375,0.5625 z" />
    <path
       id="path143"
       d="m 232.14877,109.12692 -3.6914,5.36719 h -2.37891 l 4.03125,-5.51953 q -2.91797,-0.59766 -2.91797,-3.65625 0,-1.74609 1.26563,-2.625 1.26562,-0.87891 3.6914,-0.87891 h 5.0625 v 12.67969 h -2.10937 v -5.36719 z m 2.95313,-5.82422 h -2.74219 q -1.52344,0 -2.22656,0.53907 -0.70313,0.53906 -0.70313,1.6289 0,1.10157 0.6211,1.65235 0.63281,0.53906 2.08593,0.53906 h 2.96485 z" />
  </g>
  <g
     style="font-style:normal;font-variant:normal;font-weight:normal;font-stretch:normal;font-size:24px;line-height:0%;font-family:Arial;fill:#ffffff;fill-opacity:1;stroke:none"
     id="text3180"
     aria-label="Женская">
    <path
       id="path228"
       d="m 492.21091,107.34942 q -0.4336,0 -1.08985,-0.15235 -0.64453,-0.15234 -0.9375,-0.29296 l -5.0039,8.0039 h -2.60157 l 5.96485,-9.08203 q -0.5625,-0.41016 -2.09766,-2.625 l -3.3164,-4.804686 h 2.34375 l 2.40234,3.574216 q 1.30078,1.95703 1.86328,2.58985 0.5625,0.62109 1.07813,0.85546 0.51562,0.23438 1.39453,0.23438 v -7.253906 h 2.23828 v 7.253906 q 0.8789,0 1.40625,-0.23438 0.52734,-0.24609 1.10156,-0.89062 0.57422,-0.65625 1.82813,-2.55469 l 2.40234,-3.574216 h 2.34375 l -3.31641,4.804686 q -1.53515,2.21484 -2.09765,2.625 l 5.96484,9.08203 h -2.60156 l -5.00391,-8.0039 q -0.29297,0.14062 -0.9375,0.29296 -0.63281,0.15235 -1.08984,0.15235 v 7.55859 h -2.23828 z" />
    <path
       id="path230"
       d="m 507.35153,109.01348 q 0,2.17969 0.90235,3.36328 0.90234,1.1836 2.63671,1.1836 1.3711,0 2.19141,-0.55079 0.83203,-0.55078 1.125,-1.39453 l 1.85156,0.52735 q -1.13672,3 -5.16797,3 -2.8125,0 -4.28906,-1.67578 -1.46484,-1.67579 -1.46484,-4.98047 0,-3.14063 1.46484,-4.81641 1.47656,-1.67578 4.20703,-1.67578 5.58985,0 5.58985,6.73828 v 0.28125 z m 6.86719,-1.61719 q -0.17578,-2.0039 -1.01953,-2.91797 -0.84375,-0.92578 -2.42578,-0.92578 -1.53516,0 -2.4375,1.03125 -0.89063,1.01953 -0.96094,2.8125 z" />
    <path
       id="path232"
       d="m 521.23825,102.22832 v 5.36719 h 5.70703 v -5.36719 h 2.10938 v 12.67969 h -2.10938 v -5.77734 h -5.70703 v 5.77734 h -2.10937 v -12.67969 z" />
    <path
       id="path234"
       d="m 533.94138,108.50957 q 0,2.53125 0.79687,3.75 0.79688,1.21875 2.40234,1.21875 1.125,0 1.875,-0.60937 0.76172,-0.60938 0.9375,-1.875 l 2.13282,0.14062 q -0.2461,1.82813 -1.5586,2.91797 -1.3125,1.08985 -3.32812,1.08985 -2.66016,0 -4.06641,-1.67578 -1.39453,-1.6875 -1.39453,-4.91016 0,-3.19922 1.40625,-4.875 1.40625,-1.6875 4.03125,-1.6875 1.94531,0 3.22266,1.00781 1.28906,1.00781 1.61718,2.77735 l -2.16796,0.16406 q -0.16407,-1.05469 -0.83204,-1.67578 -0.66796,-0.6211 -1.89843,-0.6211 -1.67578,0 -2.42578,1.11328 -0.75,1.11329 -0.75,3.75 z" />
    <path
       id="path236"
       d="m 544.33591,102.22832 h 2.10937 v 5.55469 q 0.35156,0 0.63281,-0.0937 0.28125,-0.0937 0.58594,-0.38672 0.30469,-0.30468 0.69141,-0.84375 0.38672,-0.53906 2.67187,-4.23047 h 2.20313 l -2.53125,3.8086 q -1.08985,1.59375 -1.5,1.93359 l 4.13672,6.9375 h -2.34375 l -3.25782,-5.82422 q -0.22265,0.0937 -0.60937,0.16407 -0.375,0.0703 -0.67969,0.0703 v 5.58984 h -2.10937 z" />
    <path
       id="path238"
       d="m 558.59763,115.14239 q -1.91016,0 -2.8711,-1.00782 -0.96094,-1.00781 -0.96094,-2.76562 0,-1.96875 1.28907,-3.02344 1.30078,-1.05469 4.18359,-1.125 l 2.84766,-0.0469 v -0.69141 q 0,-1.54687 -0.65625,-2.21484 -0.65625,-0.66797 -2.0625,-0.66797 -1.41797,0 -2.0625,0.48047 -0.64453,0.48047 -0.77344,1.53515 l -2.20313,-0.19922 q 0.53907,-3.42187 5.08594,-3.42187 2.39063,0 3.59766,1.10156 1.20703,1.08985 1.20703,3.16406 v 5.46094 q 0,0.9375 0.24609,1.41797 0.2461,0.46875 0.9375,0.46875 0.30469,0 0.69141,-0.082 v 1.3125 q -0.79688,0.1875 -1.62891,0.1875 -1.17187,0 -1.71093,-0.60938 -0.52735,-0.62109 -0.59766,-1.93359 h -0.0703 q -0.8086,1.45313 -1.88672,2.0625 -1.06641,0.59766 -2.60156,0.59766 z m 0.48046,-1.58203 q 1.16016,0 2.0625,-0.52735 0.90235,-0.52734 1.41797,-1.4414 0.52735,-0.92579 0.52735,-1.89844 v -1.04297 l -2.3086,0.0469 q -1.48828,0.0234 -2.26172,0.30469 -0.76171,0.28125 -1.17187,0.86719 -0.41016,0.58594 -0.41016,1.53516 0,1.03125 0.55078,1.59375 0.5625,0.5625 1.59375,0.5625 z" />
    <path
       id="path240"
       d="m 573.36325,109.54082 -3.69141,5.36719 h -2.3789 l 4.03125,-5.51953 q -2.91797,-0.59766 -2.91797,-3.65625 0,-1.74609 1.26562,-2.625 1.26563,-0.87891 3.69141,-0.87891 h 5.0625 v 12.67969 h -2.10937 v -5.36719 z m 2.95313,-5.82421 h -2.74219 q -1.52344,0 -2.22656,0.53906 -0.70313,0.53906 -0.70313,1.6289 0,1.10157 0.62109,1.65235 0.63282,0.53906 2.08594,0.53906 h 2.96485 z" />
  </g>
  <g
     style="font-style:normal;font-variant:normal;font-weight:normal;font-stretch:normal;font-size:21.4976px;line-height:0%;font-family:Arial;fill:#ffffff;fill-opacity:1;stroke:none;stroke-width:1.3436"
     id="text3184"
     aria-label="Костюмы">
    <path
       id="path146"
       style="stroke-width:1.3436"
       d="m 141.55829,148.56728 h 2.0049 v 6.49756 q 0.78727,0 1.25963,-0.20993 0.47236,-0.22044 0.9867,-0.79777 0.51435,-0.58782 1.63752,-2.28831 l 2.15186,-3.20155 h 2.09937 l -2.97061,4.30372 q -1.37509,1.98391 -1.87894,2.3513 l 5.3429,8.13508 h -2.3303 l -4.48217,-7.16937 q -0.26242,0.12596 -0.83975,0.26242 -0.56683,0.13646 -0.97621,0.13646 v 6.77049 h -2.0049 z" />
    <path
       id="path148"
       style="stroke-width:1.3436"
       d="m 163.3708,157.66807 q 0,2.98111 -1.31211,4.44018 -1.31211,1.45906 -3.81037,1.45906 -2.48776,0 -3.75788,-1.51155 -1.27012,-1.52204 -1.27012,-4.38769 0,-5.87825 5.09098,-5.87825 2.60323,0 3.83136,1.43807 1.22814,1.42758 1.22814,4.44018 z m -1.98391,0 q 0,-2.3513 -0.70329,-3.41148 -0.6928,-1.07069 -2.34081,-1.07069 -1.6585,0 -2.40378,1.09168 -0.73478,1.08118 -0.73478,3.39049 0,2.24633 0.72428,3.37999 0.73478,1.12317 2.29882,1.12317 1.70049,0 2.42478,-1.09168 0.73478,-1.09167 0.73478,-3.41148 z" />
    <path
       id="path150"
       style="stroke-width:1.3436"
       d="m 167.16017,157.62608 q 0,2.26733 0.71379,3.359 0.71378,1.09168 2.15186,1.09168 1.0077,0 1.6795,-0.54584 0.68229,-0.54584 0.83975,-1.6795 l 1.91043,0.12596 q -0.22044,1.63751 -1.39609,2.61372 -1.17565,0.97621 -2.98111,0.97621 -2.38279,0 -3.64241,-1.50105 -1.24913,-1.51155 -1.24913,-4.39819 0,-2.86565 1.25962,-4.3667 1.25963,-1.51155 3.61093,-1.51155 1.74248,0 2.88664,0.90273 1.15465,0.90273 1.44857,2.48776 l -1.94193,0.14696 q -0.14695,-0.94472 -0.74527,-1.50106 -0.59833,-0.55633 -1.7005,-0.55633 -1.50105,0 -2.17285,0.9972 -0.6718,0.99721 -0.6718,3.359 z" />
    <path
       id="path152"
       style="stroke-width:1.3436"
       d="m 175.38972,151.99976 h 9.11129 v 1.37509 h -3.61093 v 9.98253 h -1.88944 v -9.98253 h -3.61092 z" />
    <path
       id="path154"
       style="stroke-width:1.3436"
       d="m 200.08887,157.66807 q 0,2.98111 -1.23864,4.44018 -1.22813,1.45906 -3.56893,1.45906 -2.22534,0 -3.42198,-1.37509 -1.18615,-1.38558 -1.28062,-4.0098 h -2.33031 v 5.17496 h -1.88944 v -11.35762 h 1.88944 v 4.80757 h 2.3408 q 0.3464,-5.01751 4.75509,-5.01751 2.48776,0 3.61092,1.46956 1.13367,1.46956 1.13367,4.40869 z m -1.98391,0 q 0,-2.3513 -0.62982,-3.41148 -0.62981,-1.07069 -2.09937,-1.07069 -1.49056,0 -2.16236,1.09168 -0.6613,1.08118 -0.6613,3.39049 0,2.28832 0.6613,3.40099 0.66131,1.10217 2.05739,1.10217 1.53254,0 2.18335,-1.09168 0.65081,-1.10217 0.65081,-3.41148 z" />
    <path
       id="path156"
       style="stroke-width:1.3436"
       d="m 209.01121,163.35738 h -1.60602 l -3.40099,-9.98253 q 0.063,1.63751 0.063,2.38279 v 7.59974 h -1.82646 v -11.35762 h 2.93913 l 2.30931,6.93843 q 0.54584,1.50105 0.71379,3.00211 0.23093,-1.69 0.71379,-3.00211 l 2.30931,-6.93843 h 2.82366 v 11.35762 h -1.81596 v -7.59974 l 0.0315,-1.19665 0.0525,-1.20714 z" />
    <path
       id="path158"
       style="stroke-width:1.3436"
       d="m 221.30305,156.80733 q 2.15186,0 3.25403,0.77676 1.10217,0.76628 1.10217,2.43528 0,1.61652 -1.13366,2.47726 -1.13366,0.86075 -3.21204,0.86075 h -4.29322 v -11.35762 h 1.88943 v 4.80757 z m -2.39329,5.21694 h 2.12037 q 1.3646,0 1.99441,-0.48285 0.62981,-0.48286 0.62981,-1.52205 0,-0.98671 -0.60882,-1.43807 -0.60882,-0.46186 -2.0049,-0.46186 h -2.13087 z m 8.69142,1.33311 v -11.35762 h 1.88943 v 11.35762 z" />
  </g>
  <path
     d="m 604.65183,231.90755 a 33.2083,36.803682 0 0 0 66.4166,0 33.2083,36.803682 0 1 0 -66.4166,0 z"
     id="path2857-8-2-5-1"
     style="font-style:normal;font-variant:normal;font-weight:normal;font-stretch:normal;opacity:0.43362798;fill:#9696c8;fill-opacity:1;stroke:#0000ff;stroke-width:0.05952849;stroke-linecap:round;stroke-linejoin:round;stroke-miterlimit:4;stroke-opacity:1;stroke-dasharray:none;stroke-dashoffset:0;font-family:Arial"
     inkscape:connector-curvature="0" />
  <path
     d="m 536.6219,231.92258 a 30.410975,36.80368 0 0 0 60.82194,0 30.410975,36.80368 0 1 0 -60.82194,0 z"
     id="path2857-8-2-5-11"
     style="font-style:normal;font-variant:normal;font-weight:normal;font-stretch:normal;opacity:0.43362798;fill:#9696c8;fill-opacity:1;stroke:#0000ff;stroke-width:0.05696613;stroke-linecap:round;stroke-linejoin:round;stroke-miterlimit:4;stroke-opacity:1;stroke-dasharray:none;stroke-dashoffset:0;font-family:Arial"
     inkscape:connector-curvature="0" />
  <path
     d="m 380.47309,231.90815 a 74.74333,108.00754 0 0 0 149.48666,0 74.74333,108.00754 0 1 0 -149.48666,0 z"
     id="path3073"
     style="font-style:normal;font-variant:normal;font-weight:normal;font-stretch:normal;opacity:0.43362798;fill:#9696c8;fill-opacity:1;stroke:#0000ff;stroke-width:0.08931471;stroke-linecap:round;stroke-linejoin:round;stroke-miterlimit:4;stroke-opacity:1;stroke-dasharray:none;stroke-dashoffset:0;font-family:Arial"
     inkscape:connector-curvature="0" />
  <g
     style="font-style:normal;font-variant:normal;font-weight:normal;font-stretch:normal;font-size:21.4976px;line-height:0%;font-family:Arial;fill:#ffffff;fill-opacity:1;stroke:none;stroke-width:1.3436"
     id="text3204"
     aria-label="Платья">
    <path
       id="path215"
       style="stroke-width:1.3436"
       d="m 432.27304,164.32137 v -13.1001 h -7.99862 v 13.1001 h -2.0049 v -14.7901 h 12.00843 v 14.7901 z" />
    <path
       id="path217"
       style="stroke-width:1.3436"
       d="m 445.13171,164.32137 v -9.98253 h -3.93632 q -0.61932,4.57663 -0.95522,6.18266 -0.3359,1.59552 -0.72428,2.41428 -0.38839,0.81875 -0.96572,1.20714 -0.56683,0.38838 -1.46956,0.38838 -0.52484,0 -0.98671,-0.13646 v -1.35409 q 0.26243,0.0945 0.71379,0.0945 0.57733,0 0.92373,-0.57733 0.35689,-0.57733 0.64031,-1.99441 0.29391,-1.41707 0.6613,-4.18825 l 0.46186,-3.41148 h 7.53676 v 11.35762 z" />
    <path
       id="path219"
       style="stroke-width:1.3436"
       d="m 452.86791,164.5313 q -1.71099,0 -2.57173,-0.90273 -0.86075,-0.90273 -0.86075,-2.47726 0,-1.76348 1.15466,-2.70819 1.16515,-0.94472 3.74738,-1.0077 l 2.55074,-0.042 v -0.61932 q 0,-1.38559 -0.58782,-1.98391 -0.58783,-0.59832 -1.84745,-0.59832 -1.27012,0 -1.84745,0.43037 -0.57733,0.43037 -0.69279,1.37509 l -1.97342,-0.17844 q 0.48286,-3.06509 4.55565,-3.06509 2.14136,0 3.22254,0.98671 1.08118,0.9762 1.08118,2.83415 v 4.89155 q 0,0.83975 0.22043,1.27012 0.22044,0.41987 0.83975,0.41987 0.27292,0 0.61932,-0.0735 v 1.17565 q -0.71379,0.16795 -1.45907,0.16795 -1.04969,0 -1.53254,-0.54583 -0.47236,-0.55634 -0.53534,-1.73199 h -0.063 q -0.72428,1.30161 -1.68999,1.84745 -0.95522,0.53534 -2.33031,0.53534 z m 0.43037,-1.41708 q 1.03919,0 1.84745,-0.47235 0.80826,-0.47236 1.27013,-1.29112 0.47235,-0.82925 0.47235,-1.70049 v -0.93423 l -2.06788,0.042 q -1.3331,0.021 -2.0259,0.27292 -0.68229,0.25193 -1.04968,0.77677 -0.36739,0.52484 -0.36739,1.37509 0,0.92372 0.49335,1.42757 0.50385,0.50385 1.42757,0.50385 z" />
    <path
       id="path221"
       style="stroke-width:1.3436"
       d="m 460.37318,152.96375 h 9.11129 v 1.37509 h -3.61093 v 9.98253 h -1.88944 v -9.98253 h -3.61092 z" />
    <path
       id="path223"
       style="stroke-width:1.3436"
       d="m 475.81408,157.77132 q 2.15186,0 3.25403,0.77676 1.10217,0.76628 1.10217,2.43528 0,1.61652 -1.13366,2.47726 -1.13366,0.86075 -3.21204,0.86075 h -4.48217 v -11.35762 h 1.88944 v 4.80757 z m -2.58223,5.21694 h 2.30931 q 1.3646,0 1.99441,-0.48285 0.62981,-0.48286 0.62981,-1.52205 0,-0.98671 -0.60882,-1.43807 -0.60882,-0.46187 -2.0049,-0.46187 h -2.31981 z" />
    <path
       id="path225"
       style="stroke-width:1.3436"
       d="m 486.66785,159.5138 -3.30652,4.80757 h -2.13086 l 3.61092,-4.94403 q -2.61372,-0.53534 -2.61372,-3.27503 0,-1.56403 1.13366,-2.3513 1.13367,-0.78726 3.30652,-0.78726 h 4.53465 v 11.35762 h -1.88944 v -4.80757 z m 2.64521,-5.21695 h -2.45627 q -1.36459,0 -1.9944,0.48286 -0.62982,0.48285 -0.62982,1.45906 0,0.98671 0.55634,1.48006 0.56683,0.48286 1.86844,0.48286 h 2.65571 z" />
  </g>
  <path
     d="m 462.32878,231.90755 a 30.816965,36.803682 0 0 0 61.63393,0 30.816965,36.803682 0 1 0 -61.63393,0 z"
     id="path2857-8-2-5-1-1"
     style="font-style:normal;font-variant:normal;font-weight:normal;font-stretch:normal;opacity:0.43362798;fill:#9696c8;fill-opacity:1;stroke:#0000ff;stroke-width:0.05734512;stroke-linecap:round;stroke-linejoin:round;stroke-miterlimit:4;stroke-opacity:1;stroke-dasharray:none;stroke-dashoffset:0;font-family:Arial"
     inkscape:connector-curvature="0" />
  <path
     d="m 392.94559,231.90755 a 32.020146,36.80368 0 0 0 64.04029,0 32.020146,36.80368 0 1 0 -64.04029,0 z"
     id="path2857-8-2-5-11-4"
     style="font-style:normal;font-variant:normal;font-weight:normal;font-stretch:normal;opacity:0.43362798;fill:#9696c8;fill-opacity:1;stroke:#0000ff;stroke-width:0.05845387;stroke-linecap:round;stroke-linejoin:round;stroke-miterlimit:4;stroke-opacity:1;stroke-dasharray:none;stroke-dashoffset:0;font-family:Arial"
     inkscape:connector-curvature="0" />
  <path
     style="fill:#3838b6;fill-opacity:1;stroke:#4949cc;stroke-width:1px;stroke-linecap:butt;stroke-linejoin:miter;stroke-opacity:1"
     d="m -13.64162,252.71 731.03036,0"
     id="path3091"
     inkscape:connector-curvature="0" />
  <g
     style="font-style:normal;font-variant:normal;font-weight:normal;font-stretch:normal;font-size:17.1885px;line-height:0%;font-family:Arial;fill:#ffffff;fill-opacity:1;stroke:none;stroke-width:1.07428"
     id="text3188"
     transform="scale(1.0742835,0.93085298)"
     aria-label="Куртки">
    <path
       id="path172"
       style="stroke-width:1.07428"
       d="m 202.24792,241.20746 h 1.60302 v 5.19515 q 0.62947,0 1.00714,-0.16785 0.37768,-0.17625 0.78893,-0.63786 0.41125,-0.46999 1.30928,-1.82963 l 1.72053,-2.55981 h 1.67856 l -2.37517,3.44105 q -1.09946,1.58625 -1.50231,1.88 l 4.27194,6.50443 h -1.8632 l -3.58374,-5.73229 q -0.20982,0.10071 -0.67142,0.20982 -0.45322,0.1091 -0.78054,0.1091 v 5.41337 h -1.60302 z" />
    <path
       id="path174"
       style="stroke-width:1.07428"
       d="m 212.45359,256.59989 q -0.62107,0 -1.04071,-0.0923 v -1.13303 q 0.31892,0.0504 0.70499,0.0504 1.41,0 2.23249,-2.07303 l 0.14268,-0.36089 -3.60052,-9.03907 h 1.61142 l 1.91357,5.01891 q 0.042,0.1175 0.10071,0.28535 0.0587,0.15947 0.37768,1.09107 0.31892,0.9316 0.3441,1.04071 l 0.5875,-1.65339 1.9891,-5.78265 h 1.59464 l -3.49142,9.08103 q -0.56232,1.45196 -1.0491,2.15696 -0.48678,0.71339 -1.08267,1.05749 -0.5875,0.3525 -1.33446,0.3525 z" />
    <path
       id="path176"
       style="stroke-width:1.07428"
       d="m 228.08941,248.45046 q 0,4.75034 -3.34034,4.75034 -2.09821,0 -2.81999,-1.57785 h -0.042 q 0.0336,0.0671 0.0336,1.42678 v 3.55016 h -1.51071 v -10.79317 q 0,-1.4016 -0.0504,-1.85481 h 1.46036 q 0.008,0.0336 0.0252,0.24339 0.0168,0.20143 0.0336,0.62946 0.0252,0.42804 0.0252,0.5875 h 0.0336 q 0.40286,-0.83928 1.06589,-1.22535 0.66304,-0.39446 1.74571,-0.39446 1.67856,0 2.50945,1.12463 0.83089,1.12464 0.83089,3.53338 z m -1.58624,0.0336 q 0,-1.89677 -0.51196,-2.71088 -0.51196,-0.8141 -1.62821,-0.8141 -0.89803,0 -1.40999,0.37768 -0.50357,0.37767 -0.77214,1.18338 -0.26018,0.79732 -0.26018,2.08142 0,1.78767 0.57071,2.63535 0.57071,0.84767 1.85481,0.84767 1.12464,0 1.63661,-0.82249 0.52035,-0.83089 0.52035,-2.77803 z" />
    <path
       id="path178"
       style="stroke-width:1.07428"
       d="m 228.72727,243.95191 h 7.28497 v 1.09946 h -2.88713 v 7.98157 h -1.51071 v -7.98157 h -2.88713 z" />
    <path
       id="path180"
       style="stroke-width:1.07428"
       d="m 237.46419,243.95191 h 1.51071 v 3.9782 q 0.25179,0 0.45321,-0.0671 0.20143,-0.0671 0.41965,-0.27697 0.21821,-0.21821 0.49517,-0.60428 0.27697,-0.38607 1.91357,-3.02981 h 1.57785 l -1.81285,2.72767 q -0.78054,1.14142 -1.07428,1.38481 l 2.96266,4.96855 h -1.67856 l -2.33321,-4.17123 q -0.15946,0.0671 -0.43642,0.1175 -0.26857,0.0504 -0.48679,0.0504 v 4.00337 h -1.51071 z" />
    <path
       id="path182"
       style="stroke-width:1.07428"
       d="m 246.47809,243.95191 v 4.96855 l -0.0839,2.32481 4.18802,-7.29336 h 1.65338 v 9.08103 H 250.792 v -5.53926 q 0,-0.30214 0.0252,-0.91482 0.0336,-0.61267 0.0587,-0.87285 l -4.24676,7.32693 h -1.61142 v -9.08103 z" />
  </g>
  <g
     style="font-style:normal;font-variant:normal;font-weight:normal;font-stretch:normal;font-size:16.4209px;line-height:0%;font-family:Arial;fill:#ffffff;fill-opacity:1;stroke:none;stroke-width:1.0263"
     id="text3192"
     transform="scale(1.0263046,0.9743696)"
     aria-label="Брюки">
    <path
       id="path161"
       style="stroke-width:1.0263"
       d="m 117.82965,238.52093 q 0,1.49936 -1.03433,2.4054 -1.03432,0.90604 -2.85441,0.90604 h -4.69054 v -11.29739 h 7.42468 v 1.25081 h -5.89324 v 3.52793 h 3.06288 q 1.89226,0 2.9346,0.84189 1.05036,0.84189 1.05036,2.36532 z m -1.53946,0.016 q 0,-0.97018 -0.65748,-1.48333 -0.65748,-0.52117 -1.97243,-0.52117 h -2.87847 v 4.08919 h 2.94261 q 1.31496,0 1.94036,-0.54523 0.62541,-0.54522 0.62541,-1.53946 z" />
    <path
       id="path163"
       style="stroke-width:1.0263"
       d="m 127.12253,237.45453 q 0,4.5382 -3.19117,4.5382 -2.0045,0 -2.69405,-1.50739 h -0.0401 q 0.0321,0.0641 0.0321,1.36306 v 3.39162 h -1.44324 v -10.31117 q 0,-1.33901 -0.0481,-1.77198 h 1.39513 q 0.008,0.0321 0.0241,0.23252 0.016,0.19244 0.0321,0.60136 0.0241,0.40891 0.0241,0.56126 h 0.0321 q 0.38487,-0.8018 1.01829,-1.17063 0.63343,-0.37685 1.66775,-0.37685 1.6036,0 2.39739,1.07441 0.79378,1.07442 0.79378,3.37559 z m -1.5154,0.0321 q 0,-1.81207 -0.4891,-2.58982 -0.4891,-0.77775 -1.5555,-0.77775 -0.85793,0 -1.34703,0.36081 -0.48108,0.36082 -0.73765,1.13055 -0.24856,0.76171 -0.24856,1.98846 0,1.70784 0.54522,2.51766 0.54523,0.80982 1.77199,0.80982 1.07441,0 1.56351,-0.78576 0.49712,-0.79379 0.49712,-2.65397 z" />
    <path
       id="path165"
       style="stroke-width:1.0263"
       d="m 139.43821,237.4866 q 0,2.27712 -0.94613,3.39162 -0.93811,1.11451 -2.72613,1.11451 -1.69982,0 -2.61387,-1.05036 -0.90604,-1.05838 -0.9782,-3.06289 h -1.78 v 3.95289 h -1.44324 v -8.6755 h 1.44324 v 3.67225 h 1.78802 q 0.26459,-3.83261 3.63216,-3.83261 1.90027,0 2.7582,1.12252 0.86595,1.12253 0.86595,3.36757 z m -1.51541,0 q 0,-1.79603 -0.48108,-2.60585 -0.48108,-0.81784 -1.6036,-0.81784 -1.13856,0 -1.65172,0.83387 -0.50513,0.82586 -0.50513,2.58982 0,1.74793 0.50513,2.59784 0.50514,0.84189 1.57154,0.84189 1.17063,0 1.66774,-0.83387 0.49712,-0.84189 0.49712,-2.60586 z" />
    <path
       id="path167"
       style="stroke-width:1.0263"
       d="m 141.23424,233.15687 h 1.44325 v 3.80054 q 0.24054,0 0.43297,-0.0641 0.19243,-0.0642 0.4009,-0.2646 0.20847,-0.20847 0.47306,-0.57729 0.2646,-0.36883 1.82811,-2.89451 h 1.50739 l -1.73189,2.60586 q -0.74568,1.09045 -1.02631,1.32297 l 2.83036,4.74667 h -1.6036 l -2.22901,-3.98496 q -0.15234,0.0642 -0.41694,0.11225 -0.25657,0.0481 -0.46504,0.0481 v 3.8246 h -1.44325 z" />
    <path
       id="path169"
       style="stroke-width:1.0263"
       d="m 149.84559,233.15687 v 4.74667 l -0.0802,2.22099 4.001,-6.96766 h 1.57954 v 8.6755 h -1.37909 v -5.29189 q 0,-0.28865 0.0241,-0.87397 0.0321,-0.58531 0.0561,-0.83387 l -4.05712,6.99973 h -1.53946 v -8.6755 z" />
  </g>
  <g
     style="font-style:normal;font-variant:normal;font-weight:normal;font-stretch:normal;font-size:16.1472px;line-height:0%;font-family:Arial;text-align:center;text-anchor:middle;fill:#ffffff;fill-opacity:1;stroke:none;stroke-width:1.0092"
     id="text3196"
     aria-label="Юбки">
    <path
       id="path260"
       style="stroke-width:1.0092"
       d="m 562.26599,230.13626 q 0,1.74245 -0.63075,3.05914 -0.63075,1.3088 -1.8134,2.01051 -1.18266,0.69383 -2.75954,0.69383 -2.32589,0 -3.69777,-1.41131 -1.36399,-1.4113 -1.48226,-3.89488 h -2.32589 v 5.1485 h -1.50592 v -11.10908 h 1.50592 v 4.69908 h 2.34954 q 0.21288,-2.30223 1.56111,-3.5795 1.35611,-1.28516 3.61104,-1.28516 2.44416,0 3.81604,1.5138 1.37188,1.50592 1.37188,4.15507 z m -1.53745,0 q 0,-2.07359 -0.96189,-3.25625 -0.95401,-1.18265 -2.68858,-1.18265 -1.75821,0 -2.72011,1.16688 -0.95401,1.16689 -0.95401,3.27202 0,2.08936 0.96978,3.31932 0.97767,1.22208 2.68857,1.22208 1.75822,0 2.71223,-1.17477 0.95401,-1.18266 0.95401,-3.36663 z" />
    <path
       id="path262"
       style="stroke-width:1.0092"
       d="m 570.11883,231.78409 q 0,-1.59264 -0.52037,-2.34166 -0.52037,-0.7569 -1.69514,-0.7569 -1.25362,0 -1.84494,0.76479 -0.58345,0.76478 -0.58345,2.33377 0,1.52957 0.54402,2.30224 0.55191,0.76479 1.72668,0.76479 1.26939,0 1.82129,-0.73325 0.55191,-0.74113 0.55191,-2.33378 z m -1.9159,-4.13929 q 1.75033,0 2.57819,1.03285 0.82786,1.02497 0.82786,3.09068 0,2.08935 -0.98555,3.11432 -0.98555,1.01709 -2.86203,1.01709 -1.93956,0 -2.86203,-1.26939 -0.91459,-1.26938 -0.91459,-3.90276 0,-1.34035 0.18135,-2.34955 0.18134,-1.01708 0.56767,-1.75033 0.38633,-0.73324 0.99343,-1.22208 0.61498,-0.48883 1.53745,-0.78843 0.93036,-0.29961 3.94219,-0.71748 v 1.26938 q -3.30355,0.42576 -4.28121,0.81209 -0.96978,0.38634 -1.364,1.22997 -0.39422,0.84362 -0.42576,2.523 0.33903,-0.98555 1.13535,-1.53746 0.79633,-0.5519 1.93168,-0.5519 z" />
    <path
       id="path264"
       style="stroke-width:1.0092"
       d="m 573.37507,227.21116 h 1.41919 v 3.73719 q 0.23653,0 0.42576,-0.0631 0.18922,-0.0631 0.39422,-0.26019 0.20499,-0.20499 0.46518,-0.56767 0.26018,-0.36269 1.79763,-2.84626 h 1.48227 l -1.70303,2.56242 q -0.73325,1.07227 -1.0092,1.30092 l 2.78318,4.66755 h -1.57687 l -2.19186,-3.91853 q -0.1498,0.0631 -0.40998,0.11038 -0.2523,0.0473 -0.4573,0.0473 v 3.76085 h -1.41919 z" />
    <path
       id="path266"
       style="stroke-width:1.0092"
       d="m 581.84289,227.21116 v 4.66755 l -0.0788,2.18397 3.9343,-6.85152 h 1.55322 v 8.53089 h -1.35611 v -5.20369 q 0,-0.28383 0.0237,-0.85939 0.0315,-0.57556 0.0552,-0.81998 l -3.9895,6.88306 h -1.5138 v -8.53089 z" />
  </g>
  <g
     style="font-style:normal;font-variant:normal;font-weight:normal;font-stretch:normal;font-size:16px;line-height:0%;font-family:Arial;text-align:center;text-anchor:middle;fill:#ffffff;fill-opacity:1;stroke:none"
     id="text3200"
     aria-label="Блузки">
    <path
       id="path269"
       d="m 622.19702,232.3138 q 0,1.46093 -1.00781,2.34375 -1.00781,0.88281 -2.78125,0.88281 h -4.57031 v -11.00781 h 7.23437 v 1.21875 h -5.74219 v 3.4375 h 2.98438 q 1.84375,0 2.85937,0.82031 1.02344,0.82031 1.02344,2.30469 z m -1.5,0.0156 q 0,-0.94531 -0.64062,-1.44531 -0.64063,-0.50781 -1.92188,-0.50781 h -2.80469 v 3.98437 h 2.86719 q 1.28125,0 1.89063,-0.53125 0.60937,-0.53125 0.60937,-1.5 z" />
    <path
       id="path271"
       d="m 629.65796,235.54036 v -7.42969 h -2.92969 q -0.46094,3.40625 -0.71094,4.60156 -0.25,1.1875 -0.53906,1.79688 -0.28906,0.60937 -0.71875,0.89844 -0.42187,0.28906 -1.09375,0.28906 -0.39062,0 -0.73437,-0.10156 v -1.00782 q 0.19531,0.0703 0.53125,0.0703 0.42968,0 0.6875,-0.42969 0.26562,-0.42969 0.47656,-1.48438 0.21875,-1.05468 0.49219,-3.11718 l 0.34375,-2.53907 h 5.60937 v 8.45313 z" />
    <path
       id="path273"
       d="m 633.67358,238.86067 q -0.57812,0 -0.96875,-0.0859 v -1.05468 q 0.29688,0.0469 0.65625,0.0469 1.3125,0 2.07813,-1.92969 l 0.13281,-0.33593 -3.35156,-8.41407 h 1.5 l 1.78125,4.67188 q 0.0391,0.10937 0.0937,0.26562 0.0547,0.14844 0.35156,1.01563 0.29688,0.86719 0.32031,0.96875 l 0.54688,-1.53906 1.85156,-5.38282 h 1.48438 l -3.25,8.45313 q -0.52344,1.35156 -0.97657,2.00781 -0.45312,0.66406 -1.00781,0.98438 -0.54687,0.32812 -1.24219,0.32812 z" />
    <path
       id="path275"
       d="m 643.75952,235.69661 q -1.30469,0 -2.07812,-0.48438 -0.76563,-0.49218 -1.11719,-1.5 l 1.24219,-0.34375 q 0.41406,1.28125 1.98437,1.28125 0.75,0 1.1875,-0.36718 0.44531,-0.36719 0.44531,-1.07813 0,-1.5625 -2.58593,-1.5625 v -1.07031 q 1.25781,0 1.85156,-0.32813 0.59375,-0.32812 0.59375,-1.01562 0,-0.57813 -0.39063,-0.91406 -0.38281,-0.33594 -1.10937,-0.33594 -0.69531,0 -1.14063,0.28906 -0.4375,0.28906 -0.53125,0.83594 l -1.26562,-0.15625 q 0.35937,-2.01563 2.94531,-2.01563 1.3125,0 2.11719,0.625 0.80469,0.61719 0.80469,1.60157 0,0.78906 -0.57032,1.32031 -0.5625,0.53125 -1.36718,0.60156 v 0.0156 q 0.94531,0.10156 1.53906,0.66406 0.60156,0.55469 0.60156,1.40625 0,1.1875 -0.84375,1.85937 -0.83594,0.67188 -2.3125,0.67188 z" />
    <path
       id="path277"
       d="m 648.59546,227.08723 h 1.40625 v 3.70313 q 0.23437,0 0.42187,-0.0625 0.1875,-0.0625 0.39063,-0.25781 0.20312,-0.20313 0.46094,-0.5625 0.25781,-0.35938 1.78125,-2.82032 h 1.46875 l -1.6875,2.53907 q -0.72657,1.0625 -1,1.28906 l 2.75781,4.625 h -1.5625 l -2.17188,-3.88281 q -0.14843,0.0625 -0.40625,0.10937 -0.25,0.0469 -0.45312,0.0469 v 3.72656 h -1.40625 z" />
    <path
       id="path279"
       d="m 656.98608,227.08723 v 4.625 l -0.0781,2.16407 3.89844,-6.78907 h 1.53906 v 8.45313 h -1.34375 v -5.15625 q 0,-0.28125 0.0234,-0.85156 0.0312,-0.57032 0.0547,-0.8125 l -3.95312,6.82031 h -1.5 v -8.45313 z" />
  </g>
  <g
     style="font-style:normal;font-variant:normal;font-weight:normal;font-stretch:normal;font-size:11.7744px;line-height:0%;font-family:Arial;text-align:center;text-anchor:middle;fill:#ffffff;fill-opacity:1;stroke:none;stroke-width:0.981202"
     id="text3208"
     transform="scale(0.9812023,1.0191578)"
     aria-label="Сарафаны">
    <path
       id="path243"
       style="font-style:normal;font-variant:normal;font-weight:normal;font-stretch:normal;font-size:11.7744px;line-height:0%;font-family:Arial;text-align:center;text-anchor:middle;fill:#ffffff;fill-opacity:1;stroke:none;stroke-width:0.981202"
       d="m 478.29418,222.96897 q -1.34532,0 -2.09272,0.86813 -0.74739,0.86238 -0.74739,2.36868 0,1.48905 0.77614,2.39742 0.78189,0.90263 2.10996,0.90263 1.70177,0 2.55841,-1.68452 l 0.89687,0.44844 q -0.50018,1.04636 -1.40855,1.59253 -0.90263,0.54618 -2.09847,0.54618 -1.22458,0 -2.12146,-0.50593 -0.89113,-0.51169 -1.36257,-1.45456 -0.46568,-0.94862 -0.46568,-2.24219 0,-1.93749 1.04635,-3.03559 1.04636,-1.0981 2.89761,-1.0981 1.29358,0 2.16171,0.50593 0.86813,0.50593 1.27632,1.50055 l -1.0406,0.34495 q -0.28172,-0.70715 -0.90838,-1.08085 -0.62092,-0.3737 -1.47755,-0.3737 z" />
    <path
       id="path245"
       style="font-style:normal;font-variant:normal;font-weight:normal;font-stretch:normal;font-size:11.7744px;line-height:0%;font-family:Arial;text-align:center;text-anchor:middle;fill:#ffffff;fill-opacity:1;stroke:none;stroke-width:0.981202"
       d="m 484.7563,230.40846 q -0.93712,0 -1.40856,-0.49444 -0.47143,-0.49443 -0.47143,-1.35681 0,-0.96587 0.63241,-1.4833 0.63816,-0.51743 2.05247,-0.55193 l 1.39706,-0.023 v -0.33921 q 0,-0.75889 -0.32195,-1.0866 -0.32196,-0.3277 -1.01187,-0.3277 -0.69565,0 -1.01186,0.23571 -0.31621,0.23572 -0.37945,0.75315 l -1.08085,-0.0977 q 0.26446,-1.67878 2.49516,-1.67878 1.17284,0 1.76501,0.54043 0.59217,0.53468 0.59217,1.55229 v 2.67913 q 0,0.45994 0.12073,0.69566 0.12074,0.22997 0.45994,0.22997 0.14948,0 0.3392,-0.0402 v 0.64392 q -0.39094,0.092 -0.79914,0.092 -0.57492,0 -0.83938,-0.29895 -0.25872,-0.30471 -0.29321,-0.94863 h -0.0345 q -0.39669,0.71291 -0.92562,1.01187 -0.52318,0.29321 -1.27633,0.29321 z m 0.23572,-0.77615 q 0.56917,0 1.01186,-0.25871 0.44269,-0.25872 0.69566,-0.70716 0.25871,-0.45418 0.25871,-0.93137 v -0.51168 l -1.13259,0.023 q -0.73015,0.0115 -1.1096,0.14948 -0.3737,0.13798 -0.57493,0.42544 -0.20122,0.28746 -0.20122,0.75315 0,0.50593 0.27022,0.78189 0.27596,0.27596 0.78189,0.27596 z" />
    <path
       id="path247"
       style="font-style:normal;font-variant:normal;font-weight:normal;font-stretch:normal;font-size:11.7744px;line-height:0%;font-family:Arial;text-align:center;text-anchor:middle;fill:#ffffff;fill-opacity:1;stroke:none;stroke-width:0.981202"
       d="m 494.97841,227.1544 q 0,3.25406 -2.28819,3.25406 -1.4373,0 -1.93173,-1.08086 h -0.0288 q 0.023,0.046 0.023,0.97737 v 2.43192 h -1.03486 v -7.39349 q 0,-0.96012 -0.0345,-1.27058 h 1.00037 q 0.006,0.023 0.0172,0.16673 0.0115,0.13798 0.023,0.43119 0.0172,0.29321 0.0172,0.40244 h 0.023 q 0.27597,-0.57492 0.73016,-0.83938 0.45418,-0.27022 1.19583,-0.27022 1.14985,0 1.71902,0.7704 0.56917,0.77039 0.56917,2.42042 z m -1.0866,0.023 q 0,-1.29933 -0.3507,-1.857 -0.35071,-0.55768 -1.11535,-0.55768 -0.61517,0 -0.96587,0.25872 -0.34495,0.25871 -0.52893,0.81064 -0.17822,0.54617 -0.17822,1.4258 0,1.22459 0.39094,1.80526 0.39095,0.58067 1.27058,0.58067 0.7704,0 1.1211,-0.56342 0.35645,-0.56918 0.35645,-1.90299 z" />
    <path
       id="path249"
       style="font-style:normal;font-variant:normal;font-weight:normal;font-stretch:normal;font-size:11.7744px;line-height:0%;font-family:Arial;text-align:center;text-anchor:middle;fill:#ffffff;fill-opacity:1;stroke:none;stroke-width:0.981202"
       d="m 497.85302,230.40846 q -0.93712,0 -1.40856,-0.49444 -0.47143,-0.49443 -0.47143,-1.35681 0,-0.96587 0.63241,-1.4833 0.63816,-0.51743 2.05247,-0.55193 l 1.39706,-0.023 v -0.33921 q 0,-0.75889 -0.32195,-1.0866 -0.32196,-0.3277 -1.01187,-0.3277 -0.69565,0 -1.01186,0.23571 -0.31621,0.23572 -0.37945,0.75315 l -1.08085,-0.0977 q 0.26446,-1.67878 2.49516,-1.67878 1.17284,0 1.76501,0.54043 0.59217,0.53468 0.59217,1.55229 v 2.67913 q 0,0.45994 0.12073,0.69566 0.12074,0.22997 0.45994,0.22997 0.14948,0 0.3392,-0.0402 v 0.64392 q -0.39094,0.092 -0.79914,0.092 -0.57492,0 -0.83938,-0.29895 -0.25872,-0.30471 -0.29321,-0.94863 h -0.0345 q -0.39669,0.71291 -0.92562,1.01187 -0.52318,0.29321 -1.27633,0.29321 z m 0.23572,-0.77615 q 0.56917,0 1.01186,-0.25871 0.44269,-0.25872 0.69566,-0.70716 0.25871,-0.45418 0.25871,-0.93137 v -0.51168 l -1.13259,0.023 q -0.73016,0.0115 -1.1096,0.14948 -0.3737,0.13798 -0.57493,0.42544 -0.20122,0.28746 -0.20122,0.75315 0,0.50593 0.27022,0.78189 0.27596,0.27596 0.78189,0.27596 z" />
    <path
       id="path251"
       style="font-style:normal;font-variant:normal;font-weight:normal;font-stretch:normal;font-size:11.7744px;line-height:0%;font-family:Arial;text-align:center;text-anchor:middle;fill:#ffffff;fill-opacity:1;stroke:none;stroke-width:0.981202"
       d="m 511.20846,227.1544 q 0,1.63278 -0.53468,2.44342 -0.52893,0.81064 -1.56379,0.81064 -1.29932,0 -1.75351,-1.08086 h -0.0345 q 0.0288,0.50019 0.0288,0.97737 v 2.43192 h -0.97737 v -2.43192 q 0,-0.62666 0.0288,-1.01186 h -0.0288 q -0.26446,0.59792 -0.69565,0.85663 -0.42544,0.25872 -1.06361,0.25872 -1.06935,0 -1.58678,-0.78765 -0.51168,-0.79339 -0.51168,-2.40892 0,-3.25406 2.09846,-3.25406 0.64392,0 1.06936,0.25872 0.43119,0.25871 0.6899,0.82214 h 0.0288 l -0.0288,-0.86814 v -2.40892 h 0.97737 v 2.41467 l -0.0172,0.89688 h 0.0288 q 0.26446,-0.59792 0.67841,-0.85088 0.41394,-0.25872 1.06935,-0.25872 1.05211,0 1.57529,0.78765 0.52318,0.78189 0.52318,2.40317 z m -7.60622,0.023 q 0,1.29357 0.31046,1.86274 0.31621,0.56918 0.99461,0.56918 0.7474,0 1.0981,-0.56343 0.35071,-0.56917 0.36795,-1.7995 v -0.13798 q 0,-1.21309 -0.34495,-1.79951 -0.3392,-0.58642 -1.1096,-0.58642 -0.69565,0 -1.00611,0.59217 -0.31046,0.59217 -0.31046,1.86275 z m 6.51961,0 q 0,-1.25333 -0.31045,-1.834 -0.30471,-0.58068 -0.99462,-0.58068 -0.54042,0 -0.84513,0.26447 -0.30471,0.26446 -0.46569,0.81064 -0.15523,0.54042 -0.15523,1.42005 v 0.13224 q 0.0115,1.15559 0.3622,1.70751 0.3507,0.54618 1.09235,0.54618 0.68416,0 1.00037,-0.58642 0.3162,-0.59217 0.3162,-1.87999 z" />
    <path
       id="path253"
       style="font-style:normal;font-variant:normal;font-weight:normal;font-stretch:normal;font-size:11.7744px;line-height:0%;font-family:Arial;text-align:center;text-anchor:middle;fill:#ffffff;fill-opacity:1;stroke:none;stroke-width:0.981202"
       d="m 514.08881,230.40846 q -0.93712,0 -1.40856,-0.49444 -0.47143,-0.49443 -0.47143,-1.35681 0,-0.96587 0.63241,-1.4833 0.63817,-0.51743 2.05247,-0.55193 l 1.39706,-0.023 v -0.33921 q 0,-0.75889 -0.32195,-1.0866 -0.32196,-0.3277 -1.01186,-0.3277 -0.69566,0 -1.01187,0.23571 -0.3162,0.23572 -0.37945,0.75315 l -1.08085,-0.0977 q 0.26447,-1.67878 2.49516,-1.67878 1.17284,0 1.76501,0.54043 0.59217,0.53468 0.59217,1.55229 v 2.67913 q 0,0.45994 0.12074,0.69566 0.12073,0.22997 0.45993,0.22997 0.14948,0 0.33921,-0.0402 v 0.64392 q -0.39095,0.092 -0.79914,0.092 -0.57493,0 -0.83939,-0.29895 -0.25872,-0.30471 -0.29321,-0.94863 h -0.0345 q -0.39669,0.71291 -0.92562,1.01187 -0.52318,0.29321 -1.27633,0.29321 z m 0.23572,-0.77615 q 0.56917,0 1.01186,-0.25871 0.44269,-0.25872 0.69566,-0.70716 0.25871,-0.45418 0.25871,-0.93137 v -0.51168 l -1.13259,0.023 q -0.73015,0.0115 -1.1096,0.14948 -0.3737,0.13798 -0.57492,0.42544 -0.20123,0.28746 -0.20123,0.75315 0,0.50593 0.27022,0.78189 0.27596,0.27596 0.78189,0.27596 z" />
    <path
       id="path255"
       style="font-style:normal;font-variant:normal;font-weight:normal;font-stretch:normal;font-size:11.7744px;line-height:0%;font-family:Arial;text-align:center;text-anchor:middle;fill:#ffffff;fill-opacity:1;stroke:none;stroke-width:0.981202"
       d="m 520.10824,224.07282 v 2.63314 h 2.79987 v -2.63314 h 1.03486 v 6.22065 h -1.03486 v -2.83436 h -2.79987 v 2.83436 h -1.03486 v -6.22065 z" />
    <path
       id="path257"
       style="font-style:normal;font-variant:normal;font-weight:normal;font-stretch:normal;font-size:11.7744px;line-height:0%;font-family:Arial;text-align:center;text-anchor:middle;fill:#ffffff;fill-opacity:1;stroke:none;stroke-width:0.981202"
       d="m 527.92143,226.70596 q 1.17859,0 1.78226,0.42544 0.60367,0.4197 0.60367,1.33382 0,0.88538 -0.62092,1.35682 -0.62091,0.47143 -1.75926,0.47143 h -2.35143 v -6.22065 h 1.03486 v 2.63314 z m -1.31082,2.85736 h 1.16135 q 0.74739,0 1.09235,-0.26446 0.34495,-0.26447 0.34495,-0.83364 0,-0.54043 -0.33345,-0.78764 -0.33346,-0.25297 -1.09811,-0.25297 h -1.16709 z m 4.76036,0.73015 v -6.22065 h 1.03486 v 6.22065 z" />
  </g>
  <g
     style="font-style:normal;font-variant:normal;font-weight:normal;font-stretch:normal;font-size:12px;line-height:0%;font-family:Arial;text-align:center;text-anchor:middle;fill:#ffffff;fill-opacity:1;stroke:none"
     id="text3214"
     aria-label="Вечерние">
    <path
       id="path185"
       style="font-style:normal;font-variant:normal;font-weight:normal;font-stretch:normal;font-size:12px;line-height:0%;font-family:Arial;text-align:center;text-anchor:middle;fill:#ffffff;fill-opacity:1;stroke:none"
       d="m 404.71118,227.30269 q 0,1.10156 -0.80273,1.7168 -0.80274,0.60937 -2.23242,0.60937 h -3.35157 V 221.373 h 3 q 2.90625,0 2.90625,2.00391 0,0.73242 -0.41015,1.23047 -0.41016,0.49804 -1.16016,0.66796 0.98438,0.11719 1.51758,0.66211 0.5332,0.53907 0.5332,1.36524 z m -1.60547,-3.79102 q 0,-0.66797 -0.45703,-0.95508 -0.45703,-0.2871 -1.32422,-0.2871 h -1.88086 v 2.61328 h 1.88086 q 0.89649,0 1.33594,-0.33399 0.44531,-0.33984 0.44531,-1.03711 z m 0.47461,3.70313 q 0,-1.45899 -2.05078,-1.45899 h -2.08594 v 2.97657 h 2.17383 q 1.02539,0 1.49414,-0.38086 0.46875,-0.38086 0.46875,-1.13672 z" />
    <path
       id="path187"
       style="font-style:normal;font-variant:normal;font-weight:normal;font-stretch:normal;font-size:12px;line-height:0%;font-family:Arial;text-align:center;text-anchor:middle;fill:#ffffff;fill-opacity:1;stroke:none"
       d="m 406.96118,226.68159 q 0,1.08985 0.45117,1.68165 0.45118,0.59179 1.31836,0.59179 0.68555,0 1.09571,-0.27539 0.41601,-0.27539 0.5625,-0.69726 l 0.92578,0.26367 q -0.56836,1.5 -2.58399,1.5 -1.40625,0 -2.14453,-0.83789 -0.73242,-0.83789 -0.73242,-2.49024 0,-1.57031 0.73242,-2.4082 0.73828,-0.83789 2.10352,-0.83789 2.79492,0 2.79492,3.36914 v 0.14062 z m 3.4336,-0.80859 q -0.0879,-1.00195 -0.50977,-1.45898 -0.42188,-0.46289 -1.21289,-0.46289 -0.76758,0 -1.21875,0.51562 -0.44531,0.50977 -0.48047,1.40625 z" />
    <path
       id="path189"
       style="font-style:normal;font-variant:normal;font-weight:normal;font-stretch:normal;font-size:12px;line-height:0%;font-family:Arial;text-align:center;text-anchor:middle;fill:#ffffff;fill-opacity:1;stroke:none"
       d="m 413.38892,223.28902 v 2.35547 q 0,0.94921 0.97265,0.94921 0.64453,0 1.61719,-0.27539 v -3.02929 h 1.05469 v 6.33984 h -1.05469 v -2.70117 l -0.45703,0.17578 q -0.85547,0.32812 -1.59375,0.32812 -0.75586,0 -1.17774,-0.45117 -0.41601,-0.45703 -0.41601,-1.2832 v -2.4082 z" />
    <path
       id="path191"
       style="font-style:normal;font-variant:normal;font-weight:normal;font-stretch:normal;font-size:12px;line-height:0%;font-family:Arial;text-align:center;text-anchor:middle;fill:#ffffff;fill-opacity:1;stroke:none"
       d="m 419.48853,226.68159 q 0,1.08985 0.45117,1.68165 0.45117,0.59179 1.31836,0.59179 0.68554,0 1.0957,-0.27539 0.41602,-0.27539 0.5625,-0.69726 l 0.92578,0.26367 q -0.56836,1.5 -2.58398,1.5 -1.40625,0 -2.14453,-0.83789 -0.73243,-0.83789 -0.73243,-2.49024 0,-1.57031 0.73243,-2.4082 0.73828,-0.83789 2.10351,-0.83789 2.79492,0 2.79492,3.36914 v 0.14062 z m 3.43359,-0.80859 q -0.0879,-1.00195 -0.50977,-1.45898 -0.42187,-0.46289 -1.21289,-0.46289 -0.76758,0 -1.21875,0.51562 -0.44531,0.50977 -0.48047,1.40625 z" />
    <path
       id="path193"
       style="font-style:normal;font-variant:normal;font-weight:normal;font-stretch:normal;font-size:12px;line-height:0%;font-family:Arial;text-align:center;text-anchor:middle;fill:#ffffff;fill-opacity:1;stroke:none"
       d="m 430.71509,226.42964 q 0,3.31641 -2.33203,3.31641 -1.46485,0 -1.96875,-1.10156 h -0.0293 q 0.0234,0.0469 0.0234,0.99609 v 2.47851 h -1.05469 v -7.53515 q 0,-0.97852 -0.0352,-1.29492 h 1.01953 q 0.006,0.0234 0.0176,0.16992 0.0117,0.14062 0.0234,0.43945 0.0176,0.29883 0.0176,0.41016 h 0.0234 q 0.28125,-0.58594 0.74414,-0.85547 0.46289,-0.27539 1.21875,-0.27539 1.17187,0 1.75195,0.78515 0.58008,0.78516 0.58008,2.4668 z m -1.10742,0.0234 q 0,-1.32422 -0.35743,-1.89258 -0.35742,-0.56836 -1.13671,-0.56836 -0.62696,0 -0.98438,0.26367 -0.35156,0.26368 -0.53906,0.82618 -0.18164,0.55664 -0.18164,1.45312 0,1.24805 0.39843,1.83984 0.39844,0.5918 1.29493,0.5918 0.78515,0 1.14257,-0.57422 0.36329,-0.58008 0.36329,-1.93945 z" />
    <path
       id="path195"
       style="font-style:normal;font-variant:normal;font-weight:normal;font-stretch:normal;font-size:12px;line-height:0%;font-family:Arial;text-align:center;text-anchor:middle;fill:#ffffff;fill-opacity:1;stroke:none"
       d="m 433.10571,223.28902 v 2.68359 h 2.85352 v -2.68359 h 1.05469 v 6.33984 h -1.05469 v -2.88867 h -2.85352 v 2.88867 h -1.05468 v -6.33984 z" />
    <path
       id="path197"
       style="font-style:normal;font-variant:normal;font-weight:normal;font-stretch:normal;font-size:12px;line-height:0%;font-family:Arial;text-align:center;text-anchor:middle;fill:#ffffff;fill-opacity:1;stroke:none"
       d="m 439.69751,223.28902 v 3.46875 l -0.0586,1.62304 2.92382,-5.09179 h 1.1543 v 6.33984 h -1.00781 v -3.86719 q 0,-0.21093 0.0176,-0.63867 0.0234,-0.42773 0.041,-0.60937 l -2.96484,5.11523 h -1.125 v -6.33984 z" />
    <path
       id="path199"
       style="font-style:normal;font-variant:normal;font-weight:normal;font-stretch:normal;font-size:12px;line-height:0%;font-family:Arial;text-align:center;text-anchor:middle;fill:#ffffff;fill-opacity:1;stroke:none"
       d="m 446.16626,226.68159 q 0,1.08985 0.45117,1.68165 0.45117,0.59179 1.31836,0.59179 0.68555,0 1.0957,-0.27539 0.41602,-0.27539 0.5625,-0.69726 l 0.92579,0.26367 q -0.56836,1.5 -2.58399,1.5 -1.40625,0 -2.14453,-0.83789 -0.73242,-0.83789 -0.73242,-2.49024 0,-1.57031 0.73242,-2.4082 0.73828,-0.83789 2.10352,-0.83789 2.79492,0 2.79492,3.36914 v 0.14062 z m 3.43359,-0.80859 q -0.0879,-1.00195 -0.50976,-1.45898 -0.42188,-0.46289 -1.21289,-0.46289 -0.76758,0 -1.21875,0.51562 -0.44532,0.50977 -0.48047,1.40625 z" />
  </g>
  <path
     sodipodi:type="arc"
     style="fill:#4949cc;fill-opacity:1;stroke:none"
     id="path3861-0"
     sodipodi:cx="9.5042286"
     sodipodi:cy="251.17572"
     sodipodi:rx="2.6952288"
     sodipodi:ry="2.6952288"
     d="m 12.199457,251.17572 a 2.6952288,2.6952288 0 1 1 -5.3904572,0 2.6952288,2.6952288 0 1 1 5.3904572,0 z"
     transform="translate(4.0486765,1.7022526)" />
  <use
     x="0"
     y="0"
     xlink:href="#path3861-0"
     id="use3895"
     transform="translate(26.802448,0)"
     width="701.31848"
     height="463.81509" />
  <use
     x="0"
     y="0"
     xlink:href="#use3895"
     id="use3897"
     transform="translate(32.802448,0)"
     width="701.31848"
     height="463.81509" />
  <use
     x="0"
     y="0"
     xlink:href="#use3897"
     id="use3899"
     transform="translate(25.99388,0)"
     width="701.31848"
     height="463.81509" />
  <path
     transform="translate(196.4499,1.7022526)"
     d="m 12.199457,251.17572 a 2.6952288,2.6952288 0 1 1 -5.3904572,0 2.6952288,2.6952288 0 1 1 5.3904572,0 z"
     sodipodi:ry="2.6952288"
     sodipodi:rx="2.6952288"
     sodipodi:cy="251.17572"
     sodipodi:cx="9.5042286"
     id="use3903"
     style="fill:#4949cc;fill-opacity:1;stroke:none"
     sodipodi:type="arc" />
  <use
     x="0"
     y="0"
     xlink:href="#use3903"
     id="use3927"
     transform="translate(158.40732,0)"
     width="701.31848"
     height="463.81509" />
  <use
     x="0"
     y="0"
     xlink:href="#use3927"
     id="use3929"
     transform="translate(17.373684,0)"
     width="701.31848"
     height="463.81509" />
  <use
     x="0"
     y="0"
     xlink:href="#use3929"
     id="use3931"
     transform="translate(16.620196,0)"
     width="701.31848"
     height="463.81509" />
  <use
     x="0"
     y="0"
     xlink:href="#use3931"
     id="use3933"
     transform="translate(68.99694,0)"
     width="701.31848"
     height="463.81509" />
  <use
     x="0"
     y="0"
     xlink:href="#use3933"
     id="use3935"
     transform="translate(74.407344,0)"
     width="701.31848"
     height="463.81509" />
  <use
     x="0"
     y="0"
     xlink:href="#use3935"
     id="use3937"
     transform="translate(68.401224,0)"
     width="701.31848"
     height="463.81509" />
  <use
     x="0"
     y="0"
     xlink:href="#use3897"
     id="use3899-6"
     transform="translate(102.19449,0)"
     width="701.31848"
     height="463.81509"
     style="fill:#ff0000" />
  <use
     x="0"
     y="0"
     xlink:href="#use3899-6"
     id="use3959"
     transform="translate(104.20061,0)"
     width="701.31848"
     height="463.81509" />
  <use
     x="0"
     y="0"
     xlink:href="#use3959"
     id="use3961"
     transform="translate(29.441004,0)"
     width="701.31848"
     height="463.81509" />
  <use
     x="0"
     y="0"
     xlink:href="#use3961"
     id="use3963"
     transform="translate(27.361444,0)"
     width="701.31848"
     height="463.81509" />
  <use
     x="0"
     y="0"
     xlink:href="#use3963"
     id="use3965"
     transform="translate(114.99695,0)"
     width="701.31848"
     height="463.81509" />
  <use
     x="0"
     y="0"
     xlink:href="#use3965"
     id="use3967"
     transform="translate(66.607956,0)"
     width="701.31848"
     height="463.81509" />
  <use
     x="0"
     y="0"
     xlink:href="#use3967"
     id="use3969"
     transform="translate(10.790208,0)"
     width="701.31848"
     height="463.81509" />
  <use
     x="0"
     y="0"
     xlink:href="#use3969"
     id="use3971"
     transform="translate(63.00918,0)"
     width="701.31848"
     height="463.81509" />
  <use
     x="0"
     y="0"
     xlink:href="#use3971"
     id="use3973"
     transform="translate(73.592656,0)"
     width="701.31848"
     height="463.81509" />
  <use
     x="0"
     y="0"
     xlink:href="#use3973"
     id="use3975"
     transform="translate(12.00612,0)"
     width="701.31848"
     height="463.81509" />
  <use
     x="0"
     y="0"
     xlink:href="#use3975"
     id="use3977"
     transform="translate(11.598776,0)"
     width="701.31848"
     height="463.81509" />
  <text
     xml:space="preserve"
     style="font-style:normal;font-weight:normal;line-height:0%;font-family:sans-serif;text-align:center;letter-spacing:0px;word-spacing:0px;text-anchor:middle;fill:#000000;fill-opacity:1;stroke:none"
     x="13.568975"
     y="274.03607"
     id="text3981"><tspan
       sodipodi:role="line"
       id="tspan3983"
       x="13.568975"
       y="274.03607"
       style="font-size:18px;line-height:1.25;font-family:sans-serif">1</tspan></text>
  <text
     xml:space="preserve"
     style="font-style:normal;font-weight:normal;line-height:0%;font-family:sans-serif;text-align:center;letter-spacing:0px;word-spacing:0px;text-anchor:middle;fill:#000000;fill-opacity:1;stroke:none"
     x="39.56897"
     y="274.03607"
     id="text3981-3"><tspan
       sodipodi:role="line"
       id="tspan3983-8"
       x="39.56897"
       y="274.03607"
       style="font-size:18px;line-height:1.25;font-family:sans-serif">2</tspan></text>
  <text
     xml:space="preserve"
     style="font-style:normal;font-weight:normal;line-height:0%;font-family:sans-serif;text-align:center;letter-spacing:0px;word-spacing:0px;text-anchor:middle;fill:#000000;fill-opacity:1;stroke:none"
     x="73.56897"
     y="274.03607"
     id="text3981-3-9"><tspan
       sodipodi:role="line"
       id="tspan3983-8-6"
       x="73.56897"
       y="274.03607"
       style="font-size:18px;line-height:1.25;font-family:sans-serif">3</tspan></text>
  <text
     xml:space="preserve"
     style="font-style:normal;font-weight:normal;line-height:0%;font-family:sans-serif;text-align:center;letter-spacing:0px;word-spacing:0px;text-anchor:middle;fill:#000000;fill-opacity:1;stroke:none"
     x="98.772636"
     y="274.03607"
     id="text3981-3-9-3"><tspan
       sodipodi:role="line"
       id="tspan3983-8-6-2"
       x="98.772636"
       y="274.03607"
       style="font-size:18px;line-height:1.25;font-family:sans-serif">4</tspan></text>
  <text
     xml:space="preserve"
     style="font-style:normal;font-weight:normal;line-height:0%;font-family:sans-serif;text-align:center;letter-spacing:0px;word-spacing:0px;text-anchor:middle;fill:#000000;fill-opacity:1;stroke:none"
     x="175.17387"
     y="274.03607"
     id="text3981-3-9-3-0"><tspan
       sodipodi:role="line"
       id="tspan3983-8-6-2-4"
       x="175.17387"
       y="274.03607"
       style="font-size:18px;line-height:1.25;font-family:sans-serif">5</tspan></text>
  <text
     xml:space="preserve"
     style="font-style:normal;font-weight:normal;line-height:0%;font-family:sans-serif;text-align:center;letter-spacing:0px;word-spacing:0px;text-anchor:middle;fill:#000000;fill-opacity:1;stroke:none"
     x="205.56895"
     y="274.03607"
     id="text3981-3-9-3-0-2"><tspan
       sodipodi:role="line"
       id="tspan3983-8-6-2-4-1"
       x="205.56895"
       y="274.03607"
       style="font-size:18px;line-height:1.25;font-family:sans-serif">6</tspan></text>
  <text
     xml:space="preserve"
     style="font-style:normal;font-weight:normal;line-height:0%;font-family:sans-serif;text-align:center;letter-spacing:0px;word-spacing:0px;text-anchor:middle;fill:#000000;fill-opacity:1;stroke:none"
     x="279.25735"
     y="274.03607"
     id="text3981-0"><tspan
       sodipodi:role="line"
       id="tspan3983-87"
       x="279.25735"
       y="274.03607"
       style="font-size:18px;line-height:1.25;font-family:sans-serif">7</tspan></text>
  <text
     xml:space="preserve"
     style="font-style:normal;font-weight:normal;line-height:0%;font-family:sans-serif;text-align:center;letter-spacing:0px;word-spacing:0px;text-anchor:middle;fill:#000000;fill-opacity:1;stroke:none"
     x="336.42014"
     y="274.03607"
     id="text3981-3-9-5"><tspan
       sodipodi:role="line"
       id="tspan3983-8-6-3"
       x="336.42014"
       y="274.03607"
       style="font-size:18px;line-height:1.25;font-family:sans-serif">9</tspan></text>
  <text
     xml:space="preserve"
     style="font-style:normal;font-weight:normal;line-height:0%;font-family:sans-serif;text-align:center;letter-spacing:0px;word-spacing:0px;text-anchor:middle;fill:#000000;fill-opacity:1;stroke:none"
     x="451.17389"
     y="274.03607"
     id="text3981-3-9-3-0-28"><tspan
       sodipodi:role="line"
       id="tspan3983-8-6-2-4-9"
       x="451.17389"
       y="274.03607"
       style="font-size:18px;line-height:1.25;font-family:sans-serif">13</tspan></text>
  <text
     xml:space="preserve"
     style="font-style:normal;font-weight:normal;line-height:0%;font-family:sans-serif;text-align:center;letter-spacing:0px;word-spacing:0px;text-anchor:middle;fill:#000000;fill-opacity:1;stroke:none"
     x="466.7178"
     y="294.03607"
     id="text3981-3-9-3-0-2-7"><tspan
       sodipodi:role="line"
       id="tspan3983-8-6-2-4-1-3"
       x="466.7178"
       y="294.03607"
       style="font-size:18px;line-height:1.25;font-family:sans-serif">14</tspan></text>
  <text
     xml:space="preserve"
     style="font-style:normal;font-weight:normal;line-height:0%;font-family:sans-serif;text-align:center;letter-spacing:0px;word-spacing:0px;text-anchor:middle;fill:#000000;fill-opacity:1;stroke:none"
     x="308.7178"
     y="274.03607"
     id="text3981-0-6"><tspan
       sodipodi:role="line"
       id="tspan3983-87-6"
       x="308.7178"
       y="274.03607"
       style="font-size:18px;line-height:1.25;font-family:sans-serif">8</tspan></text>
  <text
     xml:space="preserve"
     style="font-style:normal;font-weight:normal;line-height:0%;font-family:sans-serif;text-align:center;letter-spacing:0px;word-spacing:0px;text-anchor:middle;fill:#000000;fill-opacity:1;stroke:none"
     x="364.17825"
     y="274.03607"
     id="text3981-3-9-5-2"><tspan
       sodipodi:role="line"
       id="tspan3983-8-6-3-2"
       x="364.17825"
       y="274.03607"
       style="font-size:18px;line-height:1.25;font-family:sans-serif">10</tspan></text>
  <text
     xml:space="preserve"
     style="font-style:normal;font-weight:normal;line-height:0%;font-family:sans-serif;text-align:center;letter-spacing:0px;word-spacing:0px;text-anchor:middle;fill:#000000;fill-opacity:1;stroke:none"
     x="528.32281"
     y="294.03607"
     id="text3981-3-9-3-0-28-0"><tspan
       sodipodi:role="line"
       id="tspan3983-8-6-2-4-9-3"
       x="528.32281"
       y="294.03607"
       style="font-size:18px;line-height:1.25;font-family:sans-serif">16</tspan></text>
  <text
     xml:space="preserve"
     style="font-style:normal;font-weight:normal;line-height:0%;font-family:sans-serif;text-align:center;letter-spacing:0px;word-spacing:0px;text-anchor:middle;fill:#000000;fill-opacity:1;stroke:none"
     x="513.8385"
     y="274.03607"
     id="text3981-3-9-3-0-2-7-3"><tspan
       sodipodi:role="line"
       id="tspan3983-8-6-2-4-1-3-7"
       x="513.8385"
       y="274.03607"
       style="font-size:18px;line-height:1.25;font-family:sans-serif">15</tspan></text>
  <text
     xml:space="preserve"
     style="font-style:normal;font-weight:normal;line-height:0%;font-family:sans-serif;text-align:center;letter-spacing:0px;word-spacing:0px;text-anchor:middle;fill:#000000;fill-opacity:1;stroke:none"
     x="381.04337"
     y="294.03607"
     id="text3981-3-9-5-2-8"><tspan
       sodipodi:role="line"
       id="tspan3983-8-6-3-2-6"
       x="381.04337"
       y="294.03607"
       style="font-size:18px;line-height:1.25;font-family:sans-serif">11</tspan></text>
  <text
     xml:space="preserve"
     style="font-style:normal;font-weight:normal;line-height:0%;font-family:sans-serif;text-align:center;letter-spacing:0px;word-spacing:0px;text-anchor:middle;fill:#000000;fill-opacity:1;stroke:none"
     x="398.1922"
     y="314.03607"
     id="text3981-3-9-5-2-8-8"><tspan
       sodipodi:role="line"
       id="tspan3983-8-6-3-2-6-8"
       x="398.1922"
       y="314.03607"
       style="font-size:18px;line-height:1.25;font-family:sans-serif">12</tspan></text>
  <text
     xml:space="preserve"
     style="font-style:normal;font-weight:normal;line-height:0%;font-family:sans-serif;text-align:center;letter-spacing:0px;word-spacing:0px;text-anchor:middle;fill:#000000;fill-opacity:1;stroke:none"
     x="541.45758"
     y="314.03607"
     id="text3981-3-9-3-0-28-0-3"><tspan
       sodipodi:role="line"
       id="tspan3983-8-6-2-4-9-3-8"
       x="541.45758"
       y="314.03607"
       style="font-size:18px;line-height:1.25;font-family:sans-serif">17</tspan></text>
  <text
     xml:space="preserve"
     style="font-style:normal;font-weight:normal;line-height:0%;font-family:sans-serif;text-align:center;letter-spacing:0px;word-spacing:0px;text-anchor:middle;fill:#000000;fill-opacity:1;stroke:none"
     x="591.27112"
     y="274.03607"
     id="text3981-3-9-3-0-2-7-3-5"><tspan
       sodipodi:role="line"
       id="tspan3983-8-6-2-4-1-3-7-5"
       x="591.27112"
       y="274.03607"
       style="font-size:18px;line-height:1.25;font-family:sans-serif">18</tspan></text>
  <text
     xml:space="preserve"
     style="font-style:normal;font-weight:normal;line-height:0%;font-family:sans-serif;text-align:center;letter-spacing:0px;word-spacing:0px;text-anchor:middle;fill:#000000;fill-opacity:1;stroke:none"
     x="609.82434"
     y="294.03607"
     id="text3981-3-9-3-0-2-7-3-5-0"><tspan
       sodipodi:role="line"
       id="tspan3983-8-6-2-4-1-3-7-5-4"
       x="609.82434"
       y="294.03607"
       style="font-size:18px;line-height:1.25;font-family:sans-serif">19</tspan></text>
  <text
     xml:space="preserve"
     style="font-style:normal;font-weight:normal;line-height:0%;font-family:sans-serif;text-align:center;letter-spacing:0px;word-spacing:0px;text-anchor:middle;fill:#000000;fill-opacity:1;stroke:none"
     x="663.27112"
     y="274.03607"
     id="text3981-3-9-3-0-2-7-3-5-0-0"><tspan
       sodipodi:role="line"
       id="tspan3983-8-6-2-4-1-3-7-5-4-1"
       x="663.27112"
       y="274.03607"
       style="font-size:18px;line-height:1.25;font-family:sans-serif">20</tspan></text>
  <text
     xml:space="preserve"
     style="font-style:normal;font-weight:normal;line-height:0%;font-family:sans-serif;text-align:center;letter-spacing:0px;word-spacing:0px;text-anchor:middle;fill:#000000;fill-opacity:1;stroke:none"
     x="676.98743"
     y="294.03607"
     id="text3981-3-9-3-0-2-7-3-5-0-0-4"><tspan
       sodipodi:role="line"
       id="tspan3983-8-6-2-4-1-3-7-5-4-1-7"
       x="676.98743"
       y="294.03607"
       style="font-size:18px;line-height:1.25;font-family:sans-serif">21</tspan></text>
  <text
     xml:space="preserve"
     style="font-style:normal;font-weight:normal;line-height:0%;font-family:sans-serif;text-align:center;letter-spacing:0px;word-spacing:0px;text-anchor:middle;fill:#000000;fill-opacity:1;stroke:none"
     x="688.98743"
     y="314.03607"
     id="text3981-3-9-3-0-2-7-3-5-0-0-4-9"><tspan
       sodipodi:role="line"
       id="tspan3983-8-6-2-4-1-3-7-5-4-1-7-9"
       x="688.98743"
       y="314.03607"
       style="font-size:18px;line-height:1.25;font-family:sans-serif">22</tspan></text>
  <path
     style="fill:none;stroke:#4949cc;stroke-width:1px;stroke-linecap:butt;stroke-linejoin:miter;stroke-opacity:1"
     d="m 689.12747,252.73612 0,44.5422"
     id="path4357"
     inkscape:connector-curvature="0" />
  <path
     style="fill:#4949cc;stroke:#4949cc;stroke-width:1px;stroke-linecap:butt;stroke-linejoin:miter;stroke-opacity:1;fill-opacity:1"
     d="m 677.49543,252.73612 0,25.25004"
     id="path4359"
     inkscape:connector-curvature="0" />
  <path
     style="fill:#4949cc;fill-opacity:1;stroke:#4949cc;stroke-width:1px;stroke-linecap:butt;stroke-linejoin:miter;stroke-opacity:1"
     d="m 610.06285,252.73612 0,25.25004"
     id="path4359-9"
     inkscape:connector-curvature="0" />
  <path
     style="fill:none;stroke:#4949cc;stroke-width:1px;stroke-linecap:butt;stroke-linejoin:miter;stroke-opacity:1"
     d="m 541.69489,252.73612 0,44.5422"
     id="path4357-5"
     inkscape:connector-curvature="0" />
  <path
     style="fill:#4949cc;fill-opacity:1;stroke:#4949cc;stroke-width:1px;stroke-linecap:butt;stroke-linejoin:miter;stroke-opacity:1"
     d="m 528.6443,252.73612 0,25.25004"
     id="path4359-2"
     inkscape:connector-curvature="0" />
  <path
     style="fill:#4949cc;fill-opacity:1;stroke:#4949cc;stroke-width:1px;stroke-linecap:butt;stroke-linejoin:miter;stroke-opacity:1"
     d="m 467.21172,252.73612 0,25.25004"
     id="path4359-2-4"
     inkscape:connector-curvature="0" />
  <path
     style="fill:none;stroke:#4949cc;stroke-width:1px;stroke-linecap:butt;stroke-linejoin:miter;stroke-opacity:1"
     d="m 397.9786,252.73612 0,44.5422"
     id="path4357-5-0"
     inkscape:connector-curvature="0" />
  <path
     style="fill:#4949cc;fill-opacity:1;stroke:#4949cc;stroke-width:1px;stroke-linecap:butt;stroke-linejoin:miter;stroke-opacity:1"
     d="m 381.52349,252.73612 0,25.25004"
     id="path4359-2-3"
     inkscape:connector-curvature="0" />
  <g
     style="font-style:normal;font-variant:normal;font-weight:normal;font-stretch:normal;font-size:12px;line-height:0%;font-family:Arial;text-align:center;text-anchor:middle;fill:#ffffff;fill-opacity:1;stroke:none"
     id="text3214-3"
     aria-label="платья">
    <path
       id="path202"
       style="font-style:normal;font-variant:normal;font-weight:normal;font-stretch:normal;font-size:12px;line-height:0%;font-family:Arial;text-align:center;text-anchor:middle;fill:#ffffff;fill-opacity:1;stroke:none"
       d="m 411.09497,237.40227 v 6.33984 h -1.05469 v -5.57226 h -2.72461 v 5.57226 h -1.05468 v -6.33984 z" />
    <path
       id="path204"
       style="font-style:normal;font-variant:normal;font-weight:normal;font-stretch:normal;font-size:12px;line-height:0%;font-family:Arial;text-align:center;text-anchor:middle;fill:#ffffff;fill-opacity:1;stroke:none"
       d="m 417.03638,243.74211 v -5.57226 h -2.19727 q -0.3457,2.55468 -0.5332,3.45117 -0.1875,0.89062 -0.4043,1.34765 -0.2168,0.45703 -0.53906,0.67383 -0.31641,0.2168 -0.82031,0.2168 -0.29297,0 -0.55078,-0.0762 v -0.75586 q 0.14648,0.0527 0.39843,0.0527 0.32227,0 0.51563,-0.32226 0.19922,-0.32227 0.35742,-1.11329 0.16406,-0.79101 0.36914,-2.33789 l 0.25781,-1.90429 h 4.20703 v 6.33984 z" />
    <path
       id="path206"
       style="font-style:normal;font-variant:normal;font-weight:normal;font-stretch:normal;font-size:12px;line-height:0%;font-family:Arial;text-align:center;text-anchor:middle;fill:#ffffff;fill-opacity:1;stroke:none"
       d="m 421.35474,243.8593 q -0.95508,0 -1.43555,-0.50391 -0.48047,-0.5039 -0.48047,-1.38281 0,-0.98438 0.64453,-1.51172 0.65039,-0.52734 2.0918,-0.5625 l 1.42383,-0.0234 v -0.3457 q 0,-0.77344 -0.32813,-1.10742 -0.32812,-0.33399 -1.03125,-0.33399 -0.70898,0 -1.03125,0.24024 -0.32226,0.24023 -0.38672,0.76758 l -1.10156,-0.0996 q 0.26953,-1.71094 2.54297,-1.71094 1.19531,0 1.79883,0.55078 0.60351,0.54492 0.60351,1.58203 v 2.73047 q 0,0.46875 0.12305,0.70899 0.12305,0.23437 0.46875,0.23437 0.15234,0 0.3457,-0.041 v 0.65625 q -0.39843,0.0937 -0.81445,0.0937 -0.58594,0 -0.85547,-0.30468 -0.26367,-0.31055 -0.29883,-0.9668 h -0.0351 q -0.4043,0.72656 -0.94336,1.03125 -0.53321,0.29883 -1.30078,0.29883 z m 0.24023,-0.79102 q 0.58008,0 1.03125,-0.26367 0.45117,-0.26367 0.70899,-0.7207 0.26367,-0.46289 0.26367,-0.94922 v -0.52149 l -1.1543,0.0234 q -0.74414,0.0117 -1.13086,0.15235 -0.38086,0.14062 -0.58594,0.43359 -0.20507,0.29297 -0.20507,0.76758 0,0.51562 0.27539,0.79687 0.28125,0.28125 0.79687,0.28125 z" />
    <path
       id="path208"
       style="font-style:normal;font-variant:normal;font-weight:normal;font-stretch:normal;font-size:12px;line-height:0%;font-family:Arial;text-align:center;text-anchor:middle;fill:#ffffff;fill-opacity:1;stroke:none"
       d="m 425.54419,237.40227 h 5.08594 v 0.76758 h -2.01563 v 5.57226 h -1.05469 v -5.57226 h -2.01562 z" />
    <path
       id="path210"
       style="font-style:normal;font-variant:normal;font-weight:normal;font-stretch:normal;font-size:12px;line-height:0%;font-family:Arial;text-align:center;text-anchor:middle;fill:#ffffff;fill-opacity:1;stroke:none"
       d="m 434.16333,240.08586 q 1.20117,0 1.81641,0.43359 0.61523,0.42774 0.61523,1.35938 0,0.90234 -0.63281,1.38281 -0.63281,0.48047 -1.79297,0.48047 h -2.50195 v -6.33984 h 1.05468 v 2.68359 z m -1.44141,2.91211 h 1.28907 q 0.76172,0 1.11328,-0.26953 0.35156,-0.26953 0.35156,-0.84961 0,-0.55078 -0.33984,-0.80273 -0.33985,-0.25782 -1.11914,-0.25782 h -1.29493 z" />
    <path
       id="path212"
       style="font-style:normal;font-variant:normal;font-weight:normal;font-stretch:normal;font-size:12px;line-height:0%;font-family:Arial;text-align:center;text-anchor:middle;fill:#ffffff;fill-opacity:1;stroke:none"
       d="m 440.22192,241.05852 -1.8457,2.68359 h -1.18945 l 2.01562,-2.75976 q -1.45898,-0.29883 -1.45898,-1.82813 0,-0.87305 0.63281,-1.3125 0.63281,-0.43945 1.8457,-0.43945 h 2.53125 v 6.33984 h -1.05468 v -2.68359 z m 1.47657,-2.91211 h -1.3711 q -0.76172,0 -1.11328,0.26953 -0.35156,0.26953 -0.35156,0.81445 0,0.55078 0.31055,0.82617 0.3164,0.26954 1.04296,0.26954 h 1.48243 z" />
  </g>
</svg>
